<svg viewBox="0 0 40 40" fill="none" xmlns="http://www.w3.org/2000/svg">
	<g fill="#009966">
		<path d="M24.1422 3.42267C24.1683 3.61138 24.1818 3.8041 24.1818 3.99997C24.1818 5.14784 23.7193 6.18768 22.9705 6.94334L32.0066 22.5055C32.3524 22.413 32.7159 22.3636 33.0909 22.3636C33.6426 22.3636 34.1694 22.4705 34.6517 22.6646C36.7331 17.882 37.8181 12.3976 37.8181 7.3198C33.6031 4.88627 28.9475 3.78961 24.1422 3.42267Z"/>
		<path d="M30.4303 29.7719C27.5946 33.4592 24.0546 36.5681 19.9999 38.9091C15.9453 36.5681 12.4053 33.4592 9.56954 29.7719C10.2287 29.2278 10.7183 28.4855 10.9471 27.6363H29.0528C29.2816 28.4855 29.7712 29.2278 30.4303 29.7719Z"/>
		<path d="M5.34819 22.6646C3.26674 17.882 2.18176 12.3976 2.18176 7.3198C6.39675 4.88627 11.0523 3.78961 15.8577 3.42267C15.8316 3.61138 15.8181 3.8041 15.8181 3.99997C15.8181 5.14785 16.2806 6.18771 17.0294 6.94337L7.99331 22.5055C7.64751 22.413 7.28404 22.3636 6.90904 22.3636C6.35727 22.3636 5.83047 22.4705 5.34819 22.6646Z"/>
		<path d="M18.9157 8.03986L9.87958 23.602C10.3822 24.1093 10.7558 24.7445 10.9471 25.4545H29.0528C29.2441 24.7445 29.6177 24.1092 30.1203 23.602L21.0842 8.03985C20.7384 8.13243 20.375 8.18179 19.9999 8.18179C19.625 8.18179 19.2615 8.13243 18.9157 8.03986Z"/>
		<path fill-rule="evenodd" clip-rule="evenodd" d="M33.0909 28C33.8942 28 34.5454 27.3488 34.5454 26.5454C34.5454 25.7421 33.8942 25.0909 33.0909 25.0909C32.2875 25.0909 31.6363 25.7421 31.6363 26.5454C31.6363 27.3488 32.2875 28 33.0909 28ZM33.0909 29.4545C34.6975 29.4545 35.9999 28.1521 35.9999 26.5454C35.9999 24.9388 34.6975 23.6363 33.0909 23.6363C31.4842 23.6363 30.1818 24.9388 30.1818 26.5454C30.1818 28.1521 31.4842 29.4545 33.0909 29.4545Z"/>
		<path fill-rule="evenodd" clip-rule="evenodd" d="M19.9999 5.45452C20.8033 5.45452 21.4545 4.8033 21.4545 3.99997C21.4545 3.19665 20.8033 2.54543 19.9999 2.54543C19.1966 2.54543 18.5454 3.19665 18.5454 3.99997C18.5454 4.8033 19.1966 5.45452 19.9999 5.45452ZM19.9999 6.90906C21.6066 6.90906 22.909 5.60662 22.909 3.99997C22.909 2.39333 21.6066 1.09088 19.9999 1.09088C18.3933 1.09088 17.0909 2.39333 17.0909 3.99997C17.0909 5.60662 18.3933 6.90906 19.9999 6.90906Z"/>
		<path fill-rule="evenodd" clip-rule="evenodd" d="M6.90904 28C7.71236 28 8.36358 27.3488 8.36358 26.5454C8.36358 25.7421 7.71236 25.0909 6.90904 25.0909C6.10571 25.0909 5.45449 25.7421 5.45449 26.5454C5.45449 27.3488 6.10571 28 6.90904 28ZM6.90904 29.4545C8.51568 29.4545 9.81813 28.1521 9.81813 26.5454C9.81813 24.9388 8.51568 23.6363 6.90904 23.6363C5.30239 23.6363 3.99994 24.9388 3.99994 26.5454C3.99994 28.1521 5.30239 29.4545 6.90904 29.4545Z"/>
	</g>
	<path fill="url(#eh29fk9)" d="M19.9999 27.6363V38.9091C15.9453 36.5681 12.4053 33.4592 9.56954 29.7719C10.2287 29.2278 10.7183 28.4855 10.9471 27.6363H19.9999Z"/>
	<path fill="url(#1lkjsk)" d="M19.9999 8.18179V25.4545H10.9471C10.7558 24.7445 10.3822 24.1093 9.87958 23.602L18.9157 8.03986C19.2615 8.13243 19.625 8.18179 19.9999 8.18179Z"/>
	<path fill="url(#20sn4kd)" d="M15.8577 3.42267C15.8316 3.61137 15.8181 3.8041 15.8181 3.99997C15.8181 5.14785 16.2806 6.18771 17.0294 6.94337L7.99331 22.5055C7.64751 22.413 7.28404 22.3636 6.90904 22.3636C6.35727 22.3636 5.83047 22.4705 5.34819 22.6646C3.26674 17.882 2.18176 12.3976 2.18176 7.31979C6.39675 4.88627 11.0523 3.78961 15.8577 3.42267Z"/>
	<defs>
		<linearGradient id="eh29fk9" x1="7.27267" y1="-2.76101e-05" x2="7.27267" y2="38.3636" gradientUnits="userSpaceOnUse">
			<stop stop-color="#00C885"/>
			<stop offset="1" stop-color="#009966"/>
		</linearGradient>
		<linearGradient id="1lkjsk" x1="7.27267" y1="-2.76101e-05" x2="7.27267" y2="38.3636" gradientUnits="userSpaceOnUse">
			<stop stop-color="#00C885"/>
			<stop offset="1" stop-color="#009966"/>
		</linearGradient>
		<linearGradient id="20sn4kd" x1="7.27267" y1="-2.76101e-05" x2="7.27267" y2="38.3636" gradientUnits="userSpaceOnUse">
			<stop stop-color="#00C885"/>
			<stop offset="1" stop-color="#009966"/>
		</linearGradient>
	</defs>
</svg>
